<?xml version="1.0" encoding="iso-8859-1"?>
<svg fill="#4a148c" width="20px" version="1.1" id="Layer_1" xmlns="http://www.w3.org/2000/svg" xmlns:xlink="http://www.w3.org/1999/xlink" x="0px" y="0px"
	 viewBox="0 0 512 512" style="enable-background:new 0 0 512 512;" xml:space="preserve">
<g>
	<g>
		<path d="M512,213.709v-86.646h-51.666V33.391h24.48V0H27.186v33.391h24.48v93.672H0v86.646c0,36.492,21.067,68.138,51.666,83.469
			v181.431h-24.48V512h457.627v-33.391h-24.48V297.178C490.933,281.847,512,250.201,512,213.709z M460.334,160.455h18.275v53.254
			c0,16.87-7.018,32.124-18.275,43.025V160.455z M51.666,256.732c-11.257-10.9-18.275-26.153-18.275-43.024v-53.255h18.275V256.732z
			 M153.737,33.391h145.2v143.685c0,7.207-5.864,13.069-13.069,13.069c-7.206,0-13.069-5.862-13.069-13.069v-58.356
			c-0.001-25.619-20.844-46.462-46.462-46.462c-25.619,0-46.461,20.843-46.461,46.461v14.575c0,7.207-5.864,13.069-13.069,13.069
			c-7.206,0-13.069-5.864-13.069-13.069V33.391z M85.058,33.391h35.287v99.903c0,25.619,20.843,46.461,46.461,46.461
			s46.461-20.843,46.461-46.461v-14.575c0-7.207,5.864-13.069,13.069-13.069c7.206,0,13.069,5.864,13.069,13.069v58.356
			c0,25.619,20.843,46.461,46.461,46.461s46.461-20.842,46.461-46.461V33.391h94.614V273.05c-2.701,0.374-5.455,0.582-8.258,0.582
			H93.315c-2.803,0-5.556-0.208-8.258-0.582V33.391z M85.058,478.609V306.638c2.724,0.24,5.473,0.386,8.258,0.386h325.368
			c2.785,0,5.534-0.146,8.258-0.386v171.971H85.058z"/>
	</g>
</g>
</svg>
