<?xml version="1.0" encoding="iso-8859-1"?>
<svg fill="#4a148c" width="20px" version="1.1" id="Layer_1" xmlns="http://www.w3.org/2000/svg" xmlns:xlink="http://www.w3.org/1999/xlink" x="0px" y="0px"
	 viewBox="0 0 512 512" style="enable-background:new 0 0 512 512;" xml:space="preserve">
<g>
	<g>
		<path d="M452.672,57.907c0-15.467-6.024-30.01-16.961-40.947C424.775,6.023,410.233,0,394.765,0s-30.01,6.023-40.947,16.961
			l-50.431,50.431l-19.15-19.15l-57.207,57.206l19.151,19.151L127.837,242.943L87.326,365.346l122.404-40.51l118.345-118.344
			l19.15,19.15l57.207-57.206l-19.151-19.151l50.431-50.431C446.649,87.916,452.672,73.375,452.672,57.907z M191.719,295.625
			l-51.821,17.15l17.151-51.822l10.67-10.67h69.341L191.719,295.625z M270.451,216.893h-69.343l68.683-68.684l34.672,34.671
			L270.451,216.893z M347.224,178.42l-72.972-72.972l9.962-9.961l72.972,72.971L347.224,178.42z M412.1,75.243l-50.431,50.431
			l-34.671-34.67l50.431-50.431c4.63-4.63,10.786-7.18,17.336-7.18c6.548,0,12.704,2.55,17.335,7.18
			c4.63,4.63,7.181,10.786,7.181,17.336C419.281,64.455,416.731,70.611,412.1,75.243z"/>
	</g>
</g>
<g>
	<g>
		<path d="M121.645,406.547c-1.279-1.638-2.489-3.183-3.586-4.622l-13.276-17.416l-13.279,17.416
			c-1.096,1.439-2.305,2.984-3.586,4.62c-11.385,14.551-28.59,36.54-28.59,60.003c0,25.062,20.39,45.452,45.452,45.452
			c25.062,0,45.452-20.39,45.452-45.452C150.232,443.086,133.029,421.098,121.645,406.547z M104.781,478.609
			c-6.65,0-12.061-5.411-12.061-12.061c0-7.945,5.714-17.913,12.061-26.918c6.345,9.005,12.061,18.974,12.061,26.918
			C116.843,473.198,111.432,478.609,104.781,478.609z"/>
	</g>
</g>
</svg>
